<svg preserveAspectRatio="none" width="100%" height="100%" overflow="visible" style="display: block;" viewBox="0 0 65 65" fill="none" xmlns="http://www.w3.org/2000/svg">
<g id="Captura">
<circle id="Ellipse 9" cx="32.5" cy="32.5" r="32.5" fill="var(--fill-0, #F17522)"/>
<g id="bot&#195;&#163;o_camera">
<path id="Vector" d="M34.5652 15L37.8152 21.5H47.1003C48.9311 21.5002 50.4332 23.0022 50.4333 24.833V46.5C50.4333 48.3309 48.9312 49.8328 47.1003 49.833H16.7664C14.9355 49.8328 13.4334 48.3309 13.4333 46.5V24.833C13.4335 23.0022 14.9356 21.5002 16.7664 21.5H26.0515L29.3015 15H34.5652Z" fill="var(--fill-0, white)" stroke="var(--stroke-0, white)" stroke-width="2"/>
<path id="Vector_2" d="M31.9333 44.3333C36.7197 44.3333 40.5999 40.4531 40.5999 35.6667C40.5999 30.8802 36.7197 27 31.9333 27C27.1468 27 23.2666 30.8802 23.2666 35.6667C23.2666 40.4531 27.1468 44.3333 31.9333 44.3333Z" fill="var(--fill-0, #F17522)"/>
</g>
</g>
</svg>
