<svg preserveAspectRatio="none" width="100%" height="100%" overflow="visible" style="display: block;" viewBox="0 0 37.7001 36.8539" fill="none" xmlns="http://www.w3.org/2000/svg">
<path id="Vector 26" d="M31.5803 30.4242L36.9553 13.779M28.1249 30.0371L34.2678 11.4565M31.5803 32.7468H12.7677M13.9194 35.8436H30.8124M21.5981 30.0371L24.6695 21.1339M25.0535 30.0371L27.3571 23.0694M21.5981 15.3274L28.8928 20.7468M23.9017 13.0048L29.6606 17.65M18.5266 0.617751L31.9642 11.0694M15.8391 2.94033L30.8124 14.1661M13.9194 4.87582L0.473583 15.096M16.607 6.8113L1.63365 18.4242M19.2945 9.13388L13.5355 13.3919M21.982 11.0694L14.6873 16.4887M11.2319 14.5532L14.3034 23.4565M8.54441 16.8758L10.848 23.4565M10.848 26.1661H20.0624M11.9998 29.65H19.2945M5.85689 18.4242L11.6159 36.6178M3.16937 20.7468L8.16048 36.6178" stroke="var(--stroke-0, white)" stroke-width="1.56522" stroke-miterlimit="3.99393"/>
</svg>
