<svg width="41" height="37" viewBox="0 0 41 37" fill="none" xmlns="http://www.w3.org/2000/svg">
<path d="M22.5652 1L25.8152 7.5H35.1003C36.9311 7.50018 38.4332 9.00221 38.4333 10.833V32.5C38.4333 34.3309 36.9312 35.8328 35.1003 35.833H4.76636C2.93546 35.8328 1.43335 34.3309 1.43335 32.5V10.833C1.43353 9.00222 2.93556 7.50018 4.76636 7.5H14.0515L17.3015 1H22.5652Z" fill="white" stroke="white" stroke-width="2"/>
<path d="M19.9333 30.3333C24.7197 30.3333 28.5999 26.4531 28.5999 21.6667C28.5999 16.8802 24.7197 13 19.9333 13C15.1468 13 11.2666 16.8802 11.2666 21.6667C11.2666 26.4531 15.1468 30.3333 19.9333 30.3333Z" fill="#F17522"/>
</svg>
